# xmcd
#
# Track frame offsets:
# 150
# 15522
# 32052
# 43964
# 62057
# 71681
# 85462
# 108094
# 121685
# 133638
# 156141
# 168037
# 182484
#
# Disc length: 2629 seconds
#
# Revision: 1
# Processed by: cddbd v1.5.1PL2 Copyright (c) Steve Scherf et al.
# Submitted via: Easy CD Ripper 1.45
#
DISCID=a10a430d
DTITLE=Ernie Halter - lo-fidelity
DYEAR=2005
DGENRE=Acoustic
TTITLE0=One You Need
TTITLE1=Ernie Halter - Whisper
TTITLE2=Ernie Halter - Allison
TTITLE3=Ernie Halter - Love In LA
TTITLE4=Ernie Halter - Wade In The Water
TTITLE5=Ernie Halter - Lisa
TTITLE6=Ernie Halter - Man On The Side
TTITLE7=Ernie Halter - Try A Little Tenderness
TTITLE8=Ernie Halter - Played
TTITLE9=Ernie Halter - God Bless The Child
TTITLE10=Ernie Halter - These Arms Of Mine
TTITLE11=Ernie Halter - Into This LIfe
TTITLE12=Ernie Halter - (Bonus) Fildelity
EXTD=
EXTT0=
EXTT1=
EXTT2=
EXTT3=
EXTT4=
EXTT5=
EXTT6=
EXTT7=
EXTT8=
EXTT9=
EXTT10=
EXTT11=
EXTT12=
PLAYORDER=
